<svg width="3208" height="720" viewBox="0 0 3208 720" fill="none" xmlns="http://www.w3.org/2000/svg">
<rect x="65.4736" y="523.793" width="65.4741" height="65.4741" fill="#AFA1F0"/>
<rect x="130.947" y="589.266" width="65.4741" height="65.4741" fill="#AFA1F0"/>
<rect x="196.421" y="589.266" width="65.4741" height="65.4741" fill="#AFA1F0"/>
<rect x="261.895" y="589.266" width="65.4741" height="65.4741" fill="#AFA1F0"/>
<rect x="327.368" y="523.793" width="65.4741" height="65.4741" fill="#AFA1F0"/>
<rect x="327.368" y="458.319" width="65.4741" height="65.4741" fill="#AFA1F0"/>
<rect x="261.895" y="392.845" width="65.4741" height="65.4741" fill="#AFA1F0"/>
<rect x="196.421" y="392.845" width="65.4741" height="65.4741" fill="#AFA1F0"/>
<rect x="130.947" y="327.373" width="65.4741" height="65.4741" fill="#AFA1F0"/>
<rect x="196.421" y="261.898" width="65.4741" height="65.4741" fill="#AFA1F0"/>
<rect x="261.895" y="261.898" width="65.4741" height="65.4741" fill="#AFA1F0"/>
<rect x="327.368" y="261.898" width="65.4741" height="65.4741" fill="#AFA1F0"/>
<rect x="392.842" y="261.898" width="65.4741" height="65.4741" fill="#AFA1F0"/>
<rect x="458.315" y="523.793" width="65.4741" height="65.4741" fill="#AFA1F0"/>
<rect x="458.315" y="458.319" width="65.4741" height="65.4741" fill="#AFA1F0"/>
<rect x="523.789" y="392.845" width="65.4741" height="65.4741" fill="#AFA1F0"/>
<rect x="523.789" y="327.373" width="65.4741" height="65.4741" fill="#AFA1F0"/>
<rect x="523.789" y="261.898" width="65.4741" height="65.4741" fill="#AFA1F0"/>
<rect x="589.262" y="196.424" width="65.4741" height="65.4741" fill="#AFA1F0"/>
<rect x="589.262" y="130.952" width="65.4741" height="65.4741" fill="#AFA1F0"/>
<rect x="589.262" y="65.4775" width="65.4741" height="65.4741" fill="#AFA1F0"/>
<rect x="589.262" y="392.845" width="65.4741" height="65.4741" fill="#AFA1F0"/>
<rect x="654.736" y="392.845" width="65.4741" height="65.4741" fill="#AFA1F0"/>
<rect x="720.21" y="327.373" width="65.4741" height="65.4741" fill="#AFA1F0"/>
<rect x="785.684" y="261.898" width="65.4741" height="65.4741" fill="#AFA1F0"/>
<rect x="654.736" y="458.319" width="65.4741" height="65.4741" fill="#AFA1F0"/>
<rect x="720.21" y="523.793" width="65.4741" height="65.4741" fill="#AFA1F0"/>
<rect x="720.21" y="589.266" width="65.4741" height="65.4741" fill="#AFA1F0"/>
<rect x="458.315" y="589.266" width="65.4741" height="65.4741" fill="#AFA1F0"/>
<rect x="851.156" y="589.266" width="65.4741" height="65.4741" fill="#AFA1F0"/>
<rect x="916.631" y="523.793" width="65.4741" height="65.4741" fill="#AFA1F0"/>
<rect x="982.104" y="458.319" width="65.4741" height="65.4741" fill="#AFA1F0"/>
<rect x="1047.58" y="392.845" width="65.4741" height="65.4741" fill="#AFA1F0"/>
<rect x="1113.05" y="458.319" width="65.4741" height="65.4741" fill="#AFA1F0"/>
<rect x="1178.53" y="523.793" width="65.4741" height="65.4741" fill="#AFA1F0"/>
<rect x="1178.53" y="589.266" width="65.4741" height="65.4741" fill="#AFA1F0"/>
<rect x="1113.05" y="327.373" width="65.4741" height="65.4741" fill="#AFA1F0"/>
<rect x="1178.53" y="261.898" width="65.4741" height="65.4741" fill="#AFA1F0"/>
<rect x="982.104" y="327.373" width="65.4741" height="65.4741" fill="#AFA1F0"/>
<rect x="916.631" y="261.898" width="65.4741" height="65.4741" fill="#AFA1F0"/>
<rect x="1309.47" y="458.319" width="65.4741" height="65.4741" fill="#AFA1F0"/>
<rect x="1309.47" y="392.845" width="65.4741" height="65.4741" fill="#AFA1F0"/>
<rect x="1309.47" y="327.373" width="65.4741" height="65.4741" fill="#AFA1F0"/>
<rect x="1309.47" y="261.898" width="65.4741" height="65.4741" fill="#AFA1F0"/>
<rect x="1309.47" y="523.793" width="65.4741" height="65.4741" fill="#AFA1F0"/>
<rect x="1374.95" y="589.266" width="65.4741" height="65.4741" fill="#AFA1F0"/>
<rect x="1440.42" y="523.793" width="65.4741" height="65.4741" fill="#AFA1F0"/>
<rect x="1505.89" y="458.319" width="65.4741" height="65.4741" fill="#AFA1F0"/>
<rect x="1571.37" y="392.845" width="65.4741" height="65.4741" fill="#AFA1F0"/>
<rect x="1571.37" y="327.373" width="65.4741" height="65.4741" fill="#AFA1F0"/>
<rect x="1571.37" y="261.898" width="65.4741" height="65.4741" fill="#AFA1F0"/>
<rect x="1767.79" y="589.266" width="65.4741" height="65.4741" fill="#AFA1F0"/>
<rect x="1702.31" y="589.266" width="65.4741" height="65.4741" fill="#AFA1F0"/>
<rect x="1702.31" y="523.793" width="65.4741" height="65.4741" fill="#AFA1F0"/>
<rect x="1767.79" y="523.793" width="65.4741" height="65.4741" fill="#AFA1F0"/>
<rect x="1898.73" y="523.793" width="65.4741" height="65.4741" fill="#AFA1F0"/>
<rect x="1898.73" y="458.319" width="65.4741" height="65.4741" fill="#AFA1F0"/>
<rect x="1964.21" y="392.845" width="65.4741" height="65.4741" fill="#AFA1F0"/>
<rect x="1964.21" y="327.373" width="65.4741" height="65.4741" fill="#AFA1F0"/>
<rect x="2029.68" y="261.898" width="65.4741" height="65.4741" fill="#AFA1F0"/>
<rect x="2095.15" y="261.898" width="65.4741" height="65.4741" fill="#AFA1F0"/>
<rect x="2160.63" y="327.373" width="65.4741" height="65.4741" fill="#AFA1F0"/>
<rect x="2226.1" y="327.373" width="65.4741" height="65.4741" fill="#AFA1F0"/>
<rect x="2226.1" y="392.845" width="65.4741" height="65.4741" fill="#AFA1F0"/>
<rect x="2160.63" y="458.319" width="65.4741" height="65.4741" fill="#AFA1F0"/>
<rect x="2160.63" y="523.793" width="65.4741" height="65.4741" fill="#AFA1F0"/>
<rect x="2095.15" y="589.266" width="65.4741" height="65.4741" fill="#AFA1F0"/>
<rect x="2029.68" y="589.266" width="65.4741" height="65.4741" fill="#AFA1F0"/>
<rect x="1964.21" y="589.266" width="65.4741" height="65.4741" fill="#AFA1F0"/>
<rect x="2226.1" y="261.898" width="65.4741" height="65.4741" fill="#AFA1F0"/>
<rect x="2291.58" y="196.424" width="65.4741" height="65.4741" fill="#AFA1F0"/>
<rect x="2291.58" y="130.952" width="65.4741" height="65.4741" fill="#AFA1F0"/>
<rect x="2291.58" y="65.4775" width="65.4741" height="65.4741" fill="#AFA1F0"/>
<rect x="2422.52" y="589.266" width="65.4741" height="65.4741" fill="#AFA1F0"/>
<rect x="2488" y="589.266" width="65.4741" height="65.4741" fill="#AFA1F0"/>
<rect x="2553.47" y="589.266" width="65.4741" height="65.4741" fill="#AFA1F0"/>
<rect x="2618.94" y="523.793" width="65.4741" height="65.4741" fill="#AFA1F0"/>
<rect x="2357.05" y="523.793" width="65.4741" height="65.4741" fill="#AFA1F0"/>
<rect x="2357.05" y="458.319" width="65.4741" height="65.4741" fill="#AFA1F0"/>
<rect x="2422.52" y="392.845" width="65.4741" height="65.4741" fill="#AFA1F0"/>
<rect x="2488" y="392.845" width="65.4741" height="65.4741" fill="#AFA1F0"/>
<rect x="2553.47" y="392.845" width="65.4741" height="65.4741" fill="#AFA1F0"/>
<rect x="2618.94" y="392.845" width="65.4741" height="65.4741" fill="#AFA1F0"/>
<rect x="2684.42" y="327.373" width="65.4741" height="65.4741" fill="#AFA1F0"/>
<rect x="2618.94" y="261.898" width="65.4741" height="65.4741" fill="#AFA1F0"/>
<rect x="2553.47" y="261.898" width="65.4741" height="65.4741" fill="#AFA1F0"/>
<rect x="2488" y="261.898" width="65.4741" height="65.4741" fill="#AFA1F0"/>
<rect x="2422.52" y="327.373" width="65.4741" height="65.4741" fill="#AFA1F0"/>
<rect x="2815.36" y="458.319" width="65.4741" height="65.4741" fill="#AFA1F0"/>
<rect x="2815.36" y="392.845" width="65.4741" height="65.4741" fill="#AFA1F0"/>
<rect x="2815.36" y="327.373" width="65.4741" height="65.4741" fill="#AFA1F0"/>
<rect x="2815.36" y="261.898" width="65.4741" height="65.4741" fill="#AFA1F0"/>
<rect x="2815.36" y="523.793" width="65.4741" height="65.4741" fill="#AFA1F0"/>
<rect x="2880.84" y="589.266" width="65.4741" height="65.4741" fill="#AFA1F0"/>
<rect x="2946.31" y="523.793" width="65.4741" height="65.4741" fill="#AFA1F0"/>
<rect x="3011.79" y="458.319" width="65.4741" height="65.4741" fill="#AFA1F0"/>
<rect x="3077.26" y="392.845" width="65.4741" height="65.4741" fill="#AFA1F0"/>
<rect x="3077.26" y="327.373" width="65.4741" height="65.4741" fill="#AFA1F0"/>
<rect x="3077.26" y="261.898" width="65.4741" height="65.4741" fill="#AFA1F0"/>
</svg>
